<svg width="40" height="41" viewBox="0 0 40 41" fill="none" xmlns="http://www.w3.org/2000/svg">
<path d="M32 20.2346C32.0005 17.9412 31.3438 15.6957 30.1077 13.764C28.8716 11.8322 27.1078 10.2952 25.0252 9.33481C22.9426 8.37442 20.6284 8.03093 18.3566 8.345C16.0849 8.65907 13.9507 9.61755 12.2068 11.1069C10.4628 12.5963 9.18225 14.5543 8.51659 16.7489C7.85094 18.9436 7.82811 21.283 8.45082 23.4902C9.07352 25.6974 10.3157 27.68 12.0302 29.2031C13.7447 30.7263 15.8598 31.7262 18.125 32.0846V23.7026H15.079V20.2346H18.125V17.5896C18.0596 16.9723 18.1307 16.3482 18.3333 15.7615C18.5359 15.1748 18.865 14.6398 19.2973 14.1944C19.7296 13.749 20.2546 13.4041 20.835 13.1842C21.4154 12.9642 22.0371 12.8746 22.656 12.9216C23.556 12.9336 24.454 13.0116 25.343 13.1556V16.1126H23.831C23.5734 16.0788 23.3115 16.1034 23.0648 16.1845C22.818 16.2657 22.5926 16.4013 22.4053 16.5814C22.2181 16.7614 22.0737 16.9813 21.983 17.2247C21.8922 17.4681 21.8573 17.7288 21.881 17.9876V20.2376H25.209L24.677 23.7056H21.875V32.0926C24.6984 31.6459 27.2697 30.206 29.1259 28.0321C30.9821 25.8582 32.0013 23.0931 32 20.2346Z" fill="white"/>
</svg>
