<svg width="41" height="41" viewBox="0 0 41 41" fill="none" xmlns="http://www.w3.org/2000/svg">
<path d="M27.9028 15.6902C27.6328 15.9602 27.2665 16.1119 26.8846 16.1119C26.5027 16.1119 26.1365 15.9602 25.8664 15.6902C25.5963 15.4201 25.4446 15.0538 25.4446 14.6719C25.4446 14.29 25.5963 13.9238 25.8664 13.6537C26.1365 13.3837 26.5027 13.2319 26.8846 13.2319C27.2665 13.2319 27.6328 13.3837 27.9028 13.6537C28.1729 13.9238 28.3246 14.29 28.3246 14.6719C28.3246 15.0538 28.1729 15.4201 27.9028 15.6902Z" fill="white"/>
<path fill-rule="evenodd" clip-rule="evenodd" d="M14.6666 20.8339C14.6666 24.1429 17.3576 26.8339 20.6666 26.8339C23.9756 26.8339 26.6666 24.1429 26.6666 20.8339C26.6666 17.5249 23.9756 14.8339 20.6666 14.8339C17.3576 14.8339 14.6666 17.5249 14.6666 20.8339ZM17.6666 20.8339C17.6666 19.1789 19.0116 17.8339 20.6666 17.8339C22.3217 17.8339 23.6666 19.1789 23.6666 20.8339C23.6666 22.4889 22.3217 23.8339 20.6666 23.8339C19.0116 23.8339 17.6666 22.4889 17.6666 20.8339Z" fill="white"/>
<path fill-rule="evenodd" clip-rule="evenodd" d="M8.66663 26.2319C8.66663 29.3159 11.5826 32.2319 14.6666 32.2319H26.6666C29.7506 32.2319 32.6666 29.3159 32.6666 26.2319V14.2319C32.6666 11.1479 29.7506 8.23193 26.6666 8.23193H14.6666C11.5826 8.23193 8.66663 11.1479 8.66663 14.2319V26.2319ZM11.6666 14.2319C11.6666 12.8299 13.2646 11.2319 14.6666 11.2319H26.6666C28.0686 11.2319 29.6666 12.8299 29.6666 14.2319V26.2319C29.6666 27.6339 28.0686 29.2319 26.6666 29.2319H14.6666C13.2366 29.2319 11.6666 27.6619 11.6666 26.2319V14.2319Z" fill="white"/>
</svg>
