<svg width="28" height="29" viewBox="0 0 28 29" fill="none" xmlns="http://www.w3.org/2000/svg">
<path d="M20.5997 19.6649C19.451 20.8136 16.9847 23.2799 15.4138 24.8508C14.6327 25.6319 13.3679 25.6324 12.5868 24.8514C11.0427 23.3073 8.62595 20.8905 7.40036 19.6649C3.75546 16.02 3.75546 10.1105 7.40036 6.4656C11.0453 2.82071 16.9548 2.82071 20.5997 6.4656C24.2446 10.1105 24.2446 16.02 20.5997 19.6649Z" stroke="#EA21A2" stroke-width="2" stroke-linecap="round" stroke-linejoin="round"/>
<path d="M17.5 13.0653C17.5 14.9983 15.933 16.5653 14 16.5653C12.067 16.5653 10.5 14.9983 10.5 13.0653C10.5 11.1323 12.067 9.56527 14 9.56527C15.933 9.56527 17.5 11.1323 17.5 13.0653Z" stroke="#EA21A2" stroke-width="2" stroke-linecap="round" stroke-linejoin="round"/>
</svg>
