<svg width="115" height="24" viewBox="0 0 115 24" fill="none" xmlns="http://www.w3.org/2000/svg">
<path d="M18.896 2.008V2.488C18.352 2.504 17.936 2.568 17.648 2.68C17.376 2.776 17.192 2.968 17.096 3.256C17 3.528 16.952 3.96 16.952 4.552V16.456C16.952 17.032 17 17.464 17.096 17.752C17.192 18.04 17.376 18.232 17.648 18.328C17.936 18.424 18.352 18.488 18.896 18.52V19C18.528 18.968 18.064 18.952 17.504 18.952C16.96 18.936 16.408 18.928 15.848 18.928C15.224 18.928 14.64 18.936 14.096 18.952C13.552 18.952 13.112 18.968 12.776 19V18.52C13.32 18.488 13.728 18.424 14 18.328C14.288 18.232 14.48 18.04 14.576 17.752C14.672 17.464 14.72 17.032 14.72 16.456V3.256L14.816 3.328L8.936 19.12H8.552L2.504 3.544V16.216C2.504 16.792 2.552 17.248 2.648 17.584C2.76 17.904 2.968 18.136 3.272 18.28C3.592 18.408 4.064 18.488 4.688 18.52V19C4.4 18.968 4.024 18.952 3.56 18.952C3.096 18.936 2.656 18.928 2.24 18.928C1.84 18.928 1.432 18.936 1.016 18.952C0.616 18.952 0.28 18.968 0.00800008 19V18.52C0.552 18.488 0.96 18.408 1.232 18.28C1.52 18.136 1.712 17.904 1.808 17.584C1.904 17.248 1.952 16.792 1.952 16.216V4.552C1.952 3.96 1.904 3.528 1.808 3.256C1.712 2.968 1.52 2.776 1.232 2.68C0.96 2.568 0.552 2.504 0.00800008 2.488V2.008C0.28 2.024 0.616 2.04 1.016 2.056C1.432 2.072 1.84 2.08 2.24 2.08C2.592 2.08 2.952 2.072 3.32 2.056C3.704 2.04 4.024 2.024 4.28 2.008L9.728 16.36L9.32 16.552L14.72 2.08C14.912 2.08 15.096 2.08 15.272 2.08C15.464 2.08 15.656 2.08 15.848 2.08C16.408 2.08 16.96 2.072 17.504 2.056C18.064 2.04 18.528 2.024 18.896 2.008ZM23.3383 0.639999C23.7543 0.639999 24.1143 0.791999 24.4183 1.096C24.7223 1.4 24.8743 1.76 24.8743 2.176C24.8743 2.592 24.7223 2.952 24.4183 3.256C24.1143 3.56 23.7543 3.712 23.3383 3.712C22.9223 3.712 22.5623 3.56 22.2583 3.256C21.9543 2.952 21.8023 2.592 21.8023 2.176C21.8023 1.76 21.9543 1.4 22.2583 1.096C22.5623 0.791999 22.9223 0.639999 23.3383 0.639999ZM24.5863 6.376V16.768C24.5863 17.44 24.7223 17.896 24.9943 18.136C25.2823 18.376 25.7543 18.496 26.4103 18.496V19C26.1383 18.984 25.7223 18.968 25.1623 18.952C24.6183 18.92 24.0663 18.904 23.5063 18.904C22.9623 18.904 22.4103 18.92 21.8503 18.952C21.2903 18.968 20.8743 18.984 20.6023 19V18.496C21.2583 18.496 21.7223 18.376 21.9943 18.136C22.2823 17.896 22.4263 17.44 22.4263 16.768V9.256C22.4263 8.536 22.2983 8.008 22.0423 7.672C21.7863 7.32 21.3063 7.144 20.6023 7.144V6.64C21.1143 6.688 21.6103 6.712 22.0903 6.712C22.5543 6.712 22.9943 6.688 23.4103 6.64C23.8423 6.576 24.2343 6.488 24.5863 6.376ZM31.0415 19.168C30.3855 19.168 29.8175 19.048 29.3375 18.808C28.8575 18.552 28.4895 18.2 28.2335 17.752C27.9935 17.304 27.8735 16.784 27.8735 16.192C27.8735 15.488 28.0335 14.912 28.3535 14.464C28.6895 14.016 29.1135 13.656 29.6255 13.384C30.1375 13.112 30.6735 12.888 31.2335 12.712C31.8095 12.52 32.3535 12.344 32.8655 12.184C33.3775 12.008 33.7935 11.808 34.1135 11.584C34.4495 11.36 34.6175 11.064 34.6175 10.696V9.208C34.6175 8.536 34.5135 8.024 34.3055 7.672C34.1135 7.32 33.8495 7.088 33.5135 6.976C33.1775 6.848 32.8015 6.784 32.3855 6.784C31.9855 6.784 31.5535 6.84 31.0895 6.952C30.6415 7.064 30.2815 7.296 30.0095 7.648C30.3135 7.712 30.5775 7.872 30.8015 8.128C31.0255 8.384 31.1375 8.712 31.1375 9.112C31.1375 9.512 31.0095 9.832 30.7535 10.072C30.4975 10.296 30.1695 10.408 29.7695 10.408C29.3055 10.408 28.9615 10.264 28.7375 9.976C28.5295 9.672 28.4255 9.336 28.4255 8.968C28.4255 8.552 28.5295 8.216 28.7375 7.96C28.9455 7.704 29.2095 7.464 29.5295 7.24C29.8975 6.984 30.3695 6.768 30.9455 6.592C31.5375 6.4 32.2015 6.304 32.9375 6.304C33.5935 6.304 34.1535 6.384 34.6175 6.544C35.0815 6.688 35.4655 6.904 35.7695 7.192C36.1855 7.576 36.4575 8.048 36.5855 8.608C36.7135 9.152 36.7775 9.808 36.7775 10.576V17.248C36.7775 17.648 36.8335 17.936 36.9455 18.112C37.0735 18.288 37.2655 18.376 37.5215 18.376C37.6975 18.376 37.8655 18.336 38.0255 18.256C38.1855 18.176 38.3775 18.048 38.6015 17.872L38.8655 18.28C38.5295 18.536 38.2095 18.752 37.9055 18.928C37.6015 19.088 37.1935 19.168 36.6815 19.168C36.2175 19.168 35.8335 19.088 35.5295 18.928C35.2255 18.768 34.9935 18.536 34.8335 18.232C34.6895 17.912 34.6175 17.512 34.6175 17.032C34.1855 17.752 33.6655 18.288 33.0575 18.64C32.4655 18.992 31.7935 19.168 31.0415 19.168ZM31.9055 18.208C32.4335 18.208 32.9215 18.056 33.3695 17.752C33.8335 17.448 34.2495 16.992 34.6175 16.384V11.68C34.4255 11.952 34.1455 12.184 33.7775 12.376C33.4095 12.552 33.0095 12.736 32.5775 12.928C32.1455 13.104 31.7295 13.32 31.3295 13.576C30.9455 13.816 30.6255 14.136 30.3695 14.536C30.1135 14.936 29.9855 15.456 29.9855 16.096C29.9855 16.736 30.1535 17.248 30.4895 17.632C30.8415 18.016 31.3135 18.208 31.9055 18.208ZM39.7066 2.008C40.1226 2.024 40.6666 2.04 41.3386 2.056C42.0106 2.072 42.6826 2.08 43.3546 2.08C44.1226 2.08 44.8666 2.072 45.5866 2.056C46.3066 2.04 46.8186 2.032 47.1226 2.032C49.1066 2.032 50.5866 2.384 51.5626 3.088C52.5546 3.792 53.0506 4.696 53.0506 5.8C53.0506 6.36 52.8826 6.928 52.5466 7.504C52.2106 8.08 51.6906 8.592 50.9866 9.04C50.2826 9.488 49.3706 9.816 48.2506 10.024V10.072C49.7546 10.184 50.9466 10.456 51.8266 10.888C52.7066 11.32 53.3386 11.84 53.7226 12.448C54.1066 13.056 54.2986 13.688 54.2986 14.344C54.2986 15.352 54.0346 16.2 53.5066 16.888C52.9786 17.576 52.2186 18.104 51.2266 18.472C50.2346 18.824 49.0506 19 47.6746 19C47.2906 19 46.7386 18.992 46.0186 18.976C45.2986 18.944 44.4266 18.928 43.4026 18.928C42.6986 18.928 42.0106 18.936 41.3386 18.952C40.6666 18.952 40.1226 18.968 39.7066 19V18.52C40.2186 18.488 40.6026 18.424 40.8586 18.328C41.1146 18.232 41.2826 18.04 41.3626 17.752C41.4586 17.464 41.5066 17.032 41.5066 16.456V4.552C41.5066 3.96 41.4586 3.528 41.3626 3.256C41.2826 2.968 41.1066 2.776 40.8346 2.68C40.5786 2.568 40.2026 2.504 39.7066 2.488V2.008ZM46.8106 2.488C46.1866 2.488 45.7786 2.624 45.5866 2.896C45.4106 3.168 45.3226 3.72 45.3226 4.552V16.456C45.3226 17.016 45.3626 17.44 45.4426 17.728C45.5386 18.016 45.6986 18.208 45.9226 18.304C46.1626 18.4 46.5146 18.448 46.9786 18.448C48.1306 18.448 48.9706 18.088 49.4986 17.368C50.0426 16.632 50.3146 15.592 50.3146 14.248C50.3146 13.016 50.0026 12.064 49.3786 11.392C48.7706 10.72 47.7546 10.384 46.3306 10.384H44.2906C44.2906 10.384 44.2906 10.32 44.2906 10.192C44.2906 10.048 44.2906 9.976 44.2906 9.976H46.3546C47.1066 9.976 47.6826 9.8 48.0826 9.448C48.4826 9.08 48.7626 8.6 48.9226 8.008C49.0826 7.4 49.1626 6.752 49.1626 6.064C49.1626 4.88 48.9786 3.992 48.6106 3.4C48.2426 2.792 47.6426 2.488 46.8106 2.488ZM61.7836 6.256C63.1916 6.256 64.2956 6.672 65.0956 7.504C65.8956 8.336 66.2956 9.696 66.2956 11.584H58.3996L58.3516 11.128H63.2716C63.2876 10.344 63.2396 9.624 63.1276 8.968C63.0156 8.296 62.8396 7.76 62.5996 7.36C62.3596 6.96 62.0396 6.76 61.6396 6.76C61.0796 6.76 60.5996 7.112 60.1996 7.816C59.8156 8.52 59.5836 9.688 59.5036 11.32L59.5756 11.464C59.5596 11.656 59.5436 11.856 59.5276 12.064C59.5276 12.272 59.5276 12.488 59.5276 12.712C59.5276 13.816 59.6796 14.712 59.9836 15.4C60.3036 16.088 60.7036 16.592 61.1836 16.912C61.6636 17.216 62.1516 17.368 62.6476 17.368C62.9836 17.368 63.3276 17.32 63.6796 17.224C64.0476 17.112 64.4156 16.92 64.7836 16.648C65.1516 16.36 65.4956 15.96 65.8156 15.448L66.2476 15.592C66.0556 16.2 65.7516 16.792 65.3356 17.368C64.9196 17.944 64.3916 18.416 63.7516 18.784C63.1116 19.152 62.3436 19.336 61.4476 19.336C60.3596 19.336 59.3996 19.104 58.5676 18.64C57.7356 18.176 57.0796 17.472 56.5996 16.528C56.1356 15.584 55.9036 14.384 55.9036 12.928C55.9036 11.44 56.1516 10.2 56.6476 9.208C57.1596 8.216 57.8556 7.48 58.7356 7C59.6316 6.504 60.6476 6.256 61.7836 6.256ZM70.9974 19.168C70.2774 19.168 69.6774 19.032 69.1974 18.76C68.7174 18.488 68.3654 18.128 68.1414 17.68C67.9174 17.216 67.8054 16.712 67.8054 16.168C67.8054 15.48 67.9574 14.92 68.2614 14.488C68.5814 14.056 68.9894 13.704 69.4854 13.432C69.9814 13.16 70.5014 12.936 71.0454 12.76C71.6054 12.584 72.1334 12.416 72.6294 12.256C73.1414 12.08 73.5494 11.88 73.8534 11.656C74.1734 11.416 74.3334 11.112 74.3334 10.744V8.872C74.3334 8.456 74.2614 8.088 74.1174 7.768C73.9894 7.432 73.7814 7.176 73.4934 7C73.2214 6.824 72.8614 6.736 72.4134 6.736C72.0934 6.736 71.7734 6.784 71.4534 6.88C71.1334 6.96 70.8694 7.104 70.6614 7.312C71.1094 7.472 71.4534 7.72 71.6934 8.056C71.9494 8.376 72.0774 8.744 72.0774 9.16C72.0774 9.704 71.8854 10.136 71.5014 10.456C71.1334 10.776 70.6934 10.936 70.1814 10.936C69.6054 10.936 69.1654 10.76 68.8614 10.408C68.5734 10.04 68.4294 9.6 68.4294 9.088C68.4294 8.624 68.5414 8.24 68.7654 7.936C69.0054 7.632 69.3334 7.344 69.7494 7.072C70.1974 6.816 70.7334 6.616 71.3574 6.472C71.9974 6.328 72.6854 6.256 73.4214 6.256C74.1574 6.256 74.8214 6.336 75.4134 6.496C76.0054 6.64 76.5014 6.912 76.9014 7.312C77.2694 7.68 77.5094 8.136 77.6214 8.68C77.7334 9.208 77.7894 9.88 77.7894 10.696V17.224C77.7894 17.624 77.8294 17.904 77.9094 18.064C77.9894 18.208 78.1254 18.28 78.3174 18.28C78.4614 18.28 78.5974 18.24 78.7254 18.16C78.8694 18.08 79.0214 17.984 79.1814 17.872L79.4214 18.28C79.0854 18.568 78.6934 18.792 78.2454 18.952C77.8134 19.096 77.3254 19.168 76.7814 19.168C76.1894 19.168 75.7174 19.088 75.3654 18.928C75.0134 18.752 74.7574 18.52 74.5974 18.232C74.4534 17.944 74.3814 17.608 74.3814 17.224C73.9974 17.832 73.5334 18.312 72.9894 18.664C72.4454 19 71.7814 19.168 70.9974 19.168ZM72.7014 17.632C73.0214 17.632 73.3094 17.56 73.5654 17.416C73.8374 17.256 74.0934 17 74.3334 16.648V11.728C74.1894 11.968 73.9894 12.184 73.7334 12.376C73.4774 12.568 73.2054 12.768 72.9174 12.976C72.6294 13.168 72.3494 13.384 72.0774 13.624C71.8214 13.864 71.6134 14.16 71.4534 14.512C71.2934 14.864 71.2134 15.288 71.2134 15.784C71.2134 16.408 71.3494 16.872 71.6214 17.176C71.8934 17.48 72.2534 17.632 72.7014 17.632ZM92.0593 6.328V16.384C92.0593 17.104 92.1713 17.64 92.3953 17.992C92.6193 18.328 93.0193 18.496 93.5953 18.496V19C93.0993 18.952 92.6033 18.928 92.1073 18.928C91.4353 18.928 90.8113 18.952 90.2353 19C89.6593 19.048 89.1153 19.136 88.6033 19.264V17.104C88.2193 17.904 87.6833 18.48 86.9953 18.832C86.3233 19.168 85.5713 19.336 84.7393 19.336C84.0673 19.336 83.5233 19.248 83.1073 19.072C82.6913 18.896 82.3633 18.672 82.1233 18.4C81.8513 18.096 81.6593 17.696 81.5473 17.2C81.4353 16.704 81.3793 16.064 81.3793 15.28V9.208C81.3793 8.488 81.2673 7.96 81.0433 7.624C80.8353 7.272 80.4353 7.096 79.8433 7.096V6.592C80.3553 6.64 80.8513 6.664 81.3313 6.664C82.0033 6.664 82.6273 6.64 83.2033 6.592C83.7953 6.528 84.3393 6.44 84.8353 6.328V16.264C84.8353 16.664 84.8673 17.016 84.9313 17.32C85.0113 17.624 85.1553 17.864 85.3633 18.04C85.5713 18.2 85.8753 18.28 86.2753 18.28C86.7073 18.28 87.0913 18.16 87.4273 17.92C87.7793 17.68 88.0593 17.352 88.2673 16.936C88.4913 16.504 88.6033 16.024 88.6033 15.496V9.208C88.6033 8.488 88.4913 7.96 88.2673 7.624C88.0593 7.272 87.6593 7.096 87.0673 7.096V6.592C87.5793 6.64 88.0753 6.664 88.5553 6.664C89.2273 6.664 89.8513 6.64 90.4273 6.592C91.0193 6.528 91.5633 6.44 92.0593 6.328ZM99.5339 2.656V6.592H102.366V7.072H99.5339V16.768C99.5339 17.248 99.6219 17.592 99.7979 17.8C99.9739 17.992 100.238 18.088 100.59 18.088C100.878 18.088 101.166 17.984 101.454 17.776C101.742 17.552 101.998 17.176 102.222 16.648L102.63 16.864C102.374 17.584 101.982 18.176 101.454 18.64C100.942 19.104 100.238 19.336 99.3419 19.336C98.8139 19.336 98.3499 19.264 97.9499 19.12C97.5499 18.992 97.2139 18.792 96.9419 18.52C96.5899 18.168 96.3579 17.736 96.2459 17.224C96.1339 16.696 96.0779 16.016 96.0779 15.184V7.072H94.0619V6.592H96.0779V3.424C96.7499 3.424 97.3659 3.368 97.9259 3.256C98.5019 3.128 99.0379 2.928 99.5339 2.656ZM114.835 6.592V7.072C114.531 7.152 114.243 7.344 113.971 7.648C113.699 7.936 113.435 8.432 113.179 9.136L109.795 18.64L108.907 20.32L103.675 8.44C103.403 7.816 103.131 7.44 102.859 7.312C102.603 7.168 102.379 7.096 102.187 7.096V6.592C102.715 6.64 103.259 6.68 103.819 6.712C104.395 6.728 104.947 6.736 105.475 6.736C106.131 6.736 106.731 6.72 107.275 6.688C107.819 6.656 108.331 6.624 108.811 6.592V7.096C108.491 7.096 108.187 7.12 107.899 7.168C107.627 7.2 107.435 7.312 107.323 7.504C107.227 7.68 107.275 7.992 107.467 8.44L110.491 15.736L110.275 15.88L112.051 10.912C112.355 10.048 112.483 9.344 112.435 8.8C112.387 8.24 112.211 7.824 111.907 7.552C111.603 7.264 111.187 7.104 110.659 7.072V6.592C110.915 6.608 111.179 6.624 111.451 6.64C111.723 6.64 111.995 6.648 112.267 6.664C112.539 6.664 112.779 6.664 112.987 6.664C113.307 6.664 113.643 6.656 113.995 6.64C114.347 6.624 114.627 6.608 114.835 6.592ZM109.795 18.64L108.883 21.208C108.723 21.608 108.555 21.944 108.379 22.216C108.219 22.504 108.035 22.736 107.827 22.912C107.603 23.104 107.315 23.248 106.963 23.344C106.611 23.456 106.203 23.512 105.739 23.512C105.355 23.512 104.955 23.448 104.539 23.32C104.139 23.192 103.803 22.984 103.531 22.696C103.259 22.408 103.123 22.04 103.123 21.592C103.123 21.096 103.299 20.696 103.651 20.392C104.003 20.104 104.467 19.96 105.043 19.96C105.571 19.96 106.003 20.088 106.339 20.344C106.675 20.6 106.843 20.976 106.843 21.472C106.843 21.792 106.739 22.096 106.531 22.384C106.339 22.672 106.043 22.888 105.643 23.032C105.723 23.048 105.819 23.056 105.931 23.056C106.043 23.056 106.131 23.056 106.195 23.056C106.675 23.056 107.099 22.904 107.467 22.6C107.835 22.296 108.139 21.816 108.379 21.16L109.219 18.688L109.795 18.64Z" fill="black"/>
</svg>
