<svg width="41" height="41" viewBox="0 0 41 41" fill="none" xmlns="http://www.w3.org/2000/svg">
<path d="M32.3333 12.4819C31.4333 12.9319 30.5333 13.0819 29.4833 13.2319C30.5333 12.6319 31.2833 11.7319 31.5833 10.5319C30.6833 11.1319 29.6333 11.4319 28.4333 11.7319C27.5333 10.8319 26.1833 10.2319 24.8333 10.2319C22.2833 10.2319 20.0333 12.4819 20.0333 15.1819C20.0333 15.6319 20.0333 15.9319 20.1833 16.2319C16.1333 16.0819 12.3833 14.1319 9.98331 11.1319C9.53331 11.8819 9.38331 12.6319 9.38331 13.6819C9.38331 15.3319 10.2833 16.8319 11.6333 17.7319C10.8833 17.7319 10.1333 17.4319 9.38331 17.1319C9.38331 19.5319 11.0333 21.4819 13.2833 21.9319C12.8333 22.0819 12.3833 22.0819 11.9333 22.0819C11.6333 22.0819 11.3333 22.0819 11.0333 21.9319C11.6333 23.8819 13.4333 25.3819 15.6833 25.3819C14.0333 26.7319 11.9333 27.4819 9.53331 27.4819H8.33331C10.5833 28.8319 13.1333 29.7319 15.8333 29.7319C24.8333 29.7319 29.7833 22.2319 29.7833 15.7819V15.1819C30.8333 14.4319 31.7333 13.5319 32.3333 12.4819Z" fill="white"/>
</svg>
